<?xml version="1.0" encoding="utf-8"?>
<!-- Generator: Adobe Illustrator 19.2.1, SVG Export Plug-In . SVG Version: 6.00 Build 0)  -->
<svg version="1.1" id="layer" xmlns="http://www.w3.org/2000/svg" xmlns:xlink="http://www.w3.org/1999/xlink" x="0px" y="0px"
	 viewBox="0 0 652 652" style="enable-background:new 0 0 652 652;" xml:space="preserve">
<style type="text/css">
	.st0{fill:#0088CE;}
	.st1{fill:#58595B;}
</style>
<g>
	<g>
		<path class="st0" d="M64.8,263.1c-17.4,0-28.1,8.8-34.4,20v-17.7l-9.2,5.3v90h9.2v-55.2c0-19.8,14.4-34,33.1-34
			c19.3,0,30.3,12.9,30.3,32.5v56.7h9.2v-58.3C103,279.5,89,263.1,64.8,263.1"/>
		<rect x="121.6" y="227.9" class="st0" width="11.4" height="12.5"/>
		<polygon class="st0" points="122.7,270.6 122.7,360.7 131.9,360.7 131.9,265.3 131.8,265.3 		"/>
		<path class="st0" d="M458.2,292.4v-27.1l-9.2,5.3v90.1h9.2v-39.1c0-31,19.3-47.7,41.3-47.7h0.9v-10.1
			C481.6,263.1,465.7,275.4,458.2,292.4"/>
		<path class="st0" d="M325.8,265.3v19.1c-7.9-11.2-20.8-21.3-39.8-21.3c-23,0-45.8,17.8-45.8,45.3v0.4c0,27.3,22.8,44.9,45.8,44.9
			c13.1,0,23.2-4.9,30.9-11.9v-9.6c-7.6,8-18.8,12.7-30,12.7c-19.6,0-36.8-15-36.8-36.5V308c0-22.2,16.8-36.1,36.8-36.1
			c19.8,0,38.9,14.2,38.9,36.3v0.4v36.8c0,24.5-15.5,37-37.4,37c-14,0-27.1-4.7-38.5-13.5l-5.4,7.5c13.1,9.7,27.9,14.6,43.8,14.6
			c14,0,26.4-4.5,34.6-12.7c7.7-7.7,12.2-18.5,12.2-32.3v-80.6H325.8z"/>
		<path class="st0" d="M217.6,274.3c-6.9-6.9-17.2-10.5-30.1-10.5c-13.1,0-23.4,3.4-33.8,8.2l3.4,8c8.8-4.5,18.3-7.7,29.9-7.7
			c19.6,0,31.4,9.9,31.4,29.2l0.2,23.4c0,17.4-16.6,29.4-36.1,29.4c-14.6,0-27.7-8-27.7-21.9v-0.4c0-13.3,11.2-22.3,31.4-22.3
			c4.1,0,7.8,0.2,11.4,0.5l11.7-6.8c-6.5-1.2-13.6-2-22.5-2c-24.7,0-41.7,11.2-41.7,31v0.4c0,19.8,19.1,29.9,36.8,29.9
			c18.1,0,29.9-9,36.5-18.1v15.9h9v-59.5C227.3,289.4,223.9,280.7,217.6,274.3"/>
		<path class="st0" d="M573.7,274.3c-6.9-6.9-17.2-10.5-30.1-10.5c-13.1,0-23.4,3.4-33.8,8.2l3.4,8c8.8-4.5,18.3-7.7,29.9-7.7
			c19.6,0,31.4,9.9,31.4,29.2l0.2,23.4c0,17.4-16.6,29.4-36.1,29.4c-14.6,0-27.7-8-27.7-21.9v-0.4c0-13.3,11.2-22.3,31.4-22.3
			c4.1,0,7.8,0.2,11.4,0.5l11.7-6.8c-6.5-1.2-13.6-2-22.5-2c-24.7,0-41.7,11.2-41.7,31v0.4c0,19.8,19.1,29.9,36.8,29.9
			c18.1,0,29.9-9,36.5-18.1v15.9h9v-59.5C583.4,289.4,580.1,280.7,573.7,274.3"/>
		<path class="st0" d="M420.6,274.3c-6.9-6.9-17.2-10.5-30.1-10.5c-13.1,0-23.4,3.4-33.8,8.2l3.4,8c8.8-4.5,18.3-7.7,29.9-7.7
			c19.6,0,31.4,9.9,31.4,29.2l0.2,23.4c0,17.4-16.6,29.4-36.1,29.4c-14.6,0-27.7-8-27.7-21.9v-0.4c0-13.3,11.2-22.3,31.4-22.3
			c4.1,0,7.8,0.2,11.4,0.5l11.7-6.8c-6.5-1.2-13.6-2-22.5-2c-24.7,0-41.7,11.2-41.7,31v0.4c0,19.8,19.1,29.9,36.8,29.9
			c18.1,0,29.9-9,36.5-18.1v15.9h9v-59.5C430.4,289.4,427,280.7,420.6,274.3"/>
		<g>
			<path class="st1" d="M361.4,390.2v4.5h-6.2v18.9h-5.5v-18.9h-3v-4.5h3v-1.7c0-2.6,0.6-4.6,1.9-5.8c1.3-1.3,3.1-1.9,5.4-1.9
				c1,0,1.8,0.1,2.5,0.2c0.7,0.1,1.3,0.3,1.9,0.5v4.6c-0.5-0.2-1.1-0.3-1.5-0.4c-0.5-0.1-1-0.2-1.6-0.2c-2.1,0-3.1,1.2-3.1,3.6v1.3
				H361.4z"/>
			<path class="st1" d="M370.8,413.6h-5.5V390h5.5v5.3c0.7-1.8,1.8-3.2,3.2-4.3c1.4-1.1,3.1-1.6,5.2-1.5v5.7h-0.3
				c-1.2,0-2.3,0.2-3.3,0.6c-1,0.4-1.8,1-2.5,1.7c-0.7,0.8-1.3,1.8-1.7,2.9c-0.4,1.2-0.6,2.5-0.6,4.1V413.6z"/>
		</g>
		<g>
			<path class="st1" d="M397.1,413.6v-2.9c-0.8,1-1.8,1.8-3.1,2.4c-1.3,0.7-2.8,1-4.6,1c-1.1,0-2.2-0.2-3.2-0.5
				c-1-0.3-1.9-0.8-2.7-1.4c-0.8-0.6-1.4-1.4-1.8-2.3c-0.5-0.9-0.7-2-0.7-3.2v-0.1c0-1.3,0.2-2.4,0.7-3.4c0.5-1,1.1-1.7,2-2.4
				c0.9-0.6,1.9-1.1,3-1.4c1.2-0.3,2.5-0.5,3.8-0.5c1.4,0,2.6,0.1,3.6,0.3c1,0.2,2,0.4,2.9,0.7v-0.6c0-1.6-0.5-2.9-1.5-3.8
				c-1-0.9-2.4-1.3-4.3-1.3c-1.3,0-2.5,0.1-3.6,0.4c-1,0.3-2.1,0.6-3.2,1.1l-1.5-4.3c1.3-0.6,2.7-1.1,4-1.4c1.4-0.4,3-0.5,5-0.5
				c3.5,0,6.1,0.9,7.8,2.6c1.7,1.7,2.6,4.2,2.6,7.3v14H397.1z M397.3,403.6c-0.7-0.3-1.5-0.5-2.4-0.7c-0.9-0.2-1.9-0.3-3-0.3
				c-1.7,0-3,0.3-4,1c-1,0.7-1.4,1.6-1.4,2.8v0.1c0,1.1,0.4,2,1.3,2.6c0.9,0.6,2,0.9,3.2,0.9c0.9,0,1.7-0.1,2.5-0.4
				c0.8-0.2,1.4-0.6,2-1c0.6-0.4,1-1,1.3-1.6c0.3-0.6,0.5-1.3,0.5-2V403.6z"/>
			<path class="st1" d="M432,390.7c1.3-0.8,2.8-1.1,4.6-1.1c2.6,0,4.6,0.8,6.1,2.3c1.5,1.6,2.2,3.8,2.2,6.7v15.1h-5.5v-13.4
				c0-1.9-0.4-3.3-1.2-4.3c-0.8-1-2-1.5-3.5-1.5c-1.5,0-2.7,0.5-3.6,1.5s-1.4,2.4-1.4,4.3v13.3h-5.5v-13.4c0-1.8-0.4-3.3-1.2-4.2
				c-0.8-1-2-1.5-3.5-1.5s-2.7,0.5-3.6,1.6c-0.9,1-1.4,2.5-1.4,4.3v13.2h-5.5V390h5.5v3.6c0.4-0.5,0.8-1.1,1.3-1.5
				c0.4-0.5,1-0.9,1.5-1.3c0.6-0.4,1.2-0.7,2-0.9s1.5-0.3,2.4-0.3c1.7,0,3.1,0.4,4.3,1.1c1.2,0.8,2.1,1.8,2.7,3
				C429.5,392.5,430.7,391.5,432,390.7z"/>
		</g>
		<g>
			<path class="st1" d="M457.8,408.2c1.2,1,2.7,1.5,4.5,1.5c1.3,0,2.5-0.2,3.5-0.7c1-0.5,2-1.2,2.9-2.1l3.2,2.8
				c-1.1,1.3-2.5,2.4-4,3.2c-1.6,0.8-3.4,1.2-5.6,1.2c-1.7,0-3.3-0.3-4.8-0.9c-1.5-0.6-2.8-1.4-3.8-2.5c-1.1-1.1-1.9-2.4-2.6-3.9
				c-0.6-1.5-0.9-3.2-0.9-5c0-1.7,0.3-3.3,0.9-4.8c0.6-1.5,1.4-2.8,2.4-3.9c1-1.1,2.2-2,3.6-2.7c1.4-0.7,3-1,4.7-1
				c1.9,0,3.5,0.3,4.9,1c1.4,0.7,2.6,1.6,3.5,2.8c0.9,1.2,1.6,2.5,2.1,4.1c0.5,1.6,0.7,3.2,0.7,4.9c0,0.2,0,0.5,0,0.7
				c0,0.2,0,0.5-0.1,0.8h-17.3C455.8,405.7,456.6,407.2,457.8,408.2z M467.6,400.2c-0.1-0.9-0.3-1.7-0.6-2.4c-0.3-0.8-0.7-1.4-1.2-2
				c-0.5-0.5-1.1-1-1.8-1.3c-0.7-0.3-1.5-0.5-2.4-0.5c-1.7,0-3,0.6-4.1,1.7c-1.1,1.1-1.8,2.6-2,4.5H467.6z"/>
			<path class="st1" d="M500.7,406.2l4.8-16.2h5.4l-7.7,23.8h-4.8l-5.3-16.1l-5.3,16.1H483l-7.6-23.8h5.5l4.7,16.2l5.2-16.3h4.6
				L500.7,406.2z"/>
		</g>
		<g>
			<path class="st1" d="M537.5,406.6c-0.6,1.5-1.5,2.8-2.6,3.9c-1.1,1.1-2.5,2-4,2.7c-1.6,0.7-3.2,1-5.1,1c-1.8,0-3.4-0.3-5-1
				c-1.5-0.6-2.9-1.5-4-2.6c-1.1-1.1-2-2.4-2.6-3.9c-0.6-1.5-0.9-3.1-0.9-4.8c0-1.7,0.3-3.3,1-4.8c0.6-1.5,1.5-2.8,2.6-3.9
				c1.1-1.1,2.4-2,4-2.7c1.5-0.7,3.2-1,5-1s3.5,0.3,5,1c1.5,0.6,2.9,1.5,4,2.6c1.1,1.1,2,2.4,2.6,3.9c0.6,1.5,0.9,3.1,0.9,4.8
				C538.5,403.5,538.2,405.1,537.5,406.6z M532.5,399c-0.4-0.9-0.9-1.7-1.5-2.4c-0.6-0.7-1.4-1.3-2.3-1.7c-0.9-0.4-1.8-0.6-2.9-0.6
				c-1.1,0-2,0.2-2.9,0.6c-0.9,0.4-1.6,0.9-2.2,1.6c-0.6,0.7-1.1,1.5-1.4,2.4c-0.3,0.9-0.5,1.9-0.5,2.9c0,1,0.2,2,0.5,3
				c0.4,0.9,0.8,1.8,1.5,2.4c0.6,0.7,1.4,1.2,2.3,1.6c0.9,0.4,1.8,0.6,2.9,0.6c1.1,0,2.1-0.2,3-0.6c0.9-0.4,1.6-0.9,2.2-1.6
				c0.6-0.7,1.1-1.5,1.4-2.4c0.3-0.9,0.5-1.9,0.5-2.9C533,400.9,532.9,399.9,532.5,399z"/>
			<path class="st1" d="M549.4,413.6H544V390h5.5v5.3c0.7-1.8,1.8-3.2,3.2-4.3c1.4-1.1,3.1-1.6,5.2-1.5v5.7h-0.3
				c-1.2,0-2.3,0.2-3.3,0.6c-1,0.4-1.8,1-2.5,1.7c-0.7,0.8-1.3,1.8-1.7,2.9c-0.4,1.2-0.6,2.5-0.6,4.1V413.6z"/>
			<path class="st1" d="M584.6,413.6h-6.3l-7.1-10.2l-3.3,3.4v6.7h-5.5V381h5.5v19.5l9.8-10.5h6.6l-9.4,9.6L584.6,413.6z"/>
		</g>
		<g>
			<path class="st1" d="M620,402c-0.8,2-2,3.7-3.4,5.2c-1.5,1.5-3.2,2.6-5.2,3.5c-2,0.9-4.1,1.3-6.4,1.3s-4.4-0.4-6.3-1.3
				c-2-0.8-3.7-2-5.1-3.5c-1.4-1.5-2.6-3.2-3.4-5.1c-0.8-2-1.2-4.1-1.2-6.3c0-2.2,0.4-4.3,1.2-6.3c0.8-2,2-3.7,3.4-5.2
				c1.5-1.5,3.2-2.6,5.2-3.5c2-0.9,4.1-1.3,6.4-1.3c2.3,0,4.4,0.4,6.3,1.3c2,0.8,3.7,2,5.1,3.5c1.4,1.5,2.6,3.2,3.4,5.1
				c0.8,2,1.2,4.1,1.2,6.3C621.3,397.9,620.9,400,620,402z M618.5,390.1c-0.7-1.8-1.7-3.3-3-4.6c-1.3-1.3-2.8-2.3-4.6-3.1
				c-1.8-0.8-3.7-1.1-5.7-1.1c-2.1,0-4,0.4-5.7,1.2c-1.8,0.8-3.3,1.8-4.6,3.1c-1.3,1.3-2.3,2.9-3.1,4.7c-0.7,1.8-1.1,3.7-1.1,5.7
				c0,2,0.4,3.9,1.1,5.7c0.7,1.8,1.7,3.3,3,4.6c1.3,1.3,2.8,2.3,4.6,3.1c1.8,0.8,3.7,1.1,5.7,1.1c2.1,0,4-0.4,5.7-1.2
				c1.8-0.8,3.3-1.8,4.6-3.1c1.3-1.3,2.3-2.9,3.1-4.6c0.7-1.8,1.1-3.7,1.1-5.7C619.6,393.7,619.2,391.8,618.5,390.1z M611.6,395.6
				c-0.7,0.8-1.7,1.4-2.8,1.8l4.6,6.4h-3.8l-4.1-5.9h-3.5v5.9h-3.2v-16.9h7.6c2,0,3.5,0.5,4.7,1.4c1.2,1,1.8,2.3,1.8,4
				C612.7,393.6,612.3,394.7,611.6,395.6z M608.5,390.4c-0.6-0.5-1.4-0.7-2.5-0.7h-4.2v5.4h4.2c1,0,1.9-0.2,2.5-0.7
				c0.6-0.5,0.9-1.1,0.9-2C609.3,391.5,609,390.9,608.5,390.4z"/>
		</g>
	</g>
</g>
</svg>
